<mxfile host="app.diagrams.net" modified="2022-01-20T05:59:02.552Z" agent="5.0 (Windows NT 10.0; Win64; x64) AppleWebKit/537.36 (KHTML, like Gecko) Chrome/97.0.4692.71 Safari/537.36" etag="orAOGLAHjbePwW5lvzHS" version="16.4.2" type="github">
  <diagram id="01qrme-QBljBOb41FZrx" name="Page-1">
    <mxGraphModel dx="2844" dy="1524" grid="1" gridSize="10" guides="1" tooltips="1" connect="1" arrows="1" fold="1" page="1" pageScale="1" pageWidth="3300" pageHeight="4681" background="none" math="0" shadow="0">
      <root>
        <mxCell id="0" />
        <mxCell id="1" parent="0" />
        <mxCell id="A44jhofo7Y1cHH0_AKLR-1" value="AWS Cloud" style="points=[[0,0],[0.25,0],[0.5,0],[0.75,0],[1,0],[1,0.25],[1,0.5],[1,0.75],[1,1],[0.75,1],[0.5,1],[0.25,1],[0,1],[0,0.75],[0,0.5],[0,0.25]];outlineConnect=0;gradientColor=none;html=1;whiteSpace=wrap;fontSize=12;fontStyle=0;container=1;pointerEvents=0;collapsible=0;recursiveResize=0;shape=mxgraph.aws4.group;grIcon=mxgraph.aws4.group_aws_cloud;strokeColor=#232F3E;fillColor=none;verticalAlign=top;align=left;spacingLeft=30;fontColor=#232F3E;dashed=0;" parent="1" vertex="1">
          <mxGeometry x="840" y="80" width="2320" height="1720" as="geometry" />
        </mxCell>
        <mxCell id="A44jhofo7Y1cHH0_AKLR-254" value="" style="edgeStyle=orthogonalEdgeStyle;html=1;endArrow=openThin;elbow=vertical;startArrow=none;endFill=0;strokeColor=#545B64;rounded=0;strokeWidth=5;" parent="A44jhofo7Y1cHH0_AKLR-1" edge="1">
          <mxGeometry width="100" relative="1" as="geometry">
            <mxPoint x="10" y="870" as="sourcePoint" />
            <mxPoint x="290" y="870" as="targetPoint" />
          </mxGeometry>
        </mxCell>
        <mxCell id="A44jhofo7Y1cHH0_AKLR-2" value="Region" style="points=[[0,0],[0.25,0],[0.5,0],[0.75,0],[1,0],[1,0.25],[1,0.5],[1,0.75],[1,1],[0.75,1],[0.5,1],[0.25,1],[0,1],[0,0.75],[0,0.5],[0,0.25]];outlineConnect=0;gradientColor=none;html=1;whiteSpace=wrap;fontSize=12;fontStyle=0;container=1;pointerEvents=0;collapsible=0;recursiveResize=0;shape=mxgraph.aws4.group;grIcon=mxgraph.aws4.group_region;strokeColor=#147EBA;fillColor=none;verticalAlign=top;align=left;spacingLeft=30;fontColor=#147EBA;dashed=1;" parent="A44jhofo7Y1cHH0_AKLR-1" vertex="1">
          <mxGeometry x="400" y="40" width="1880" height="720" as="geometry" />
        </mxCell>
        <mxCell id="A44jhofo7Y1cHH0_AKLR-4" value="VPC" style="points=[[0,0],[0.25,0],[0.5,0],[0.75,0],[1,0],[1,0.25],[1,0.5],[1,0.75],[1,1],[0.75,1],[0.5,1],[0.25,1],[0,1],[0,0.75],[0,0.5],[0,0.25]];outlineConnect=0;gradientColor=none;html=1;whiteSpace=wrap;fontSize=12;fontStyle=0;container=1;pointerEvents=0;collapsible=0;recursiveResize=0;shape=mxgraph.aws4.group;grIcon=mxgraph.aws4.group_vpc;strokeColor=#248814;fillColor=none;verticalAlign=top;align=left;spacingLeft=30;fontColor=#AAB7B8;dashed=0;" parent="A44jhofo7Y1cHH0_AKLR-2" vertex="1">
          <mxGeometry x="160" y="40" width="1600" height="660" as="geometry" />
        </mxCell>
        <mxCell id="A44jhofo7Y1cHH0_AKLR-6" value="Availability Zone" style="fillColor=none;strokeColor=#147EBA;dashed=1;verticalAlign=top;fontStyle=0;fontColor=#147EBA;" parent="A44jhofo7Y1cHH0_AKLR-4" vertex="1">
          <mxGeometry x="40" y="40" width="1520" height="240" as="geometry" />
        </mxCell>
        <mxCell id="A44jhofo7Y1cHH0_AKLR-16" value="Private subnet" style="points=[[0,0],[0.25,0],[0.5,0],[0.75,0],[1,0],[1,0.25],[1,0.5],[1,0.75],[1,1],[0.75,1],[0.5,1],[0.25,1],[0,1],[0,0.75],[0,0.5],[0,0.25]];outlineConnect=0;gradientColor=none;html=1;whiteSpace=wrap;fontSize=12;fontStyle=0;container=1;pointerEvents=0;collapsible=0;recursiveResize=0;shape=mxgraph.aws4.group;grIcon=mxgraph.aws4.group_security_group;grStroke=0;strokeColor=#147EBA;fillColor=#E6F2F8;verticalAlign=top;align=left;spacingLeft=30;fontColor=#147EBA;dashed=0;" parent="A44jhofo7Y1cHH0_AKLR-4" vertex="1">
          <mxGeometry x="1080" y="70" width="440" height="200" as="geometry" />
        </mxCell>
        <mxCell id="A44jhofo7Y1cHH0_AKLR-44" value="" style="sketch=0;points=[[0,0,0],[0.25,0,0],[0.5,0,0],[0.75,0,0],[1,0,0],[0,1,0],[0.25,1,0],[0.5,1,0],[0.75,1,0],[1,1,0],[0,0.25,0],[0,0.5,0],[0,0.75,0],[1,0.25,0],[1,0.5,0],[1,0.75,0]];outlineConnect=0;fontColor=#232F3E;gradientColor=#4D72F3;gradientDirection=north;fillColor=#3334B9;strokeColor=#ffffff;dashed=0;verticalLabelPosition=bottom;verticalAlign=top;align=center;html=1;fontSize=12;fontStyle=0;aspect=fixed;shape=mxgraph.aws4.resourceIcon;resIcon=mxgraph.aws4.rds;" parent="A44jhofo7Y1cHH0_AKLR-16" vertex="1">
          <mxGeometry x="181" y="61" width="78" height="78" as="geometry" />
        </mxCell>
        <mxCell id="A44jhofo7Y1cHH0_AKLR-14" value="Public subnet" style="points=[[0,0],[0.25,0],[0.5,0],[0.75,0],[1,0],[1,0.25],[1,0.5],[1,0.75],[1,1],[0.75,1],[0.5,1],[0.25,1],[0,1],[0,0.75],[0,0.5],[0,0.25]];outlineConnect=0;gradientColor=none;html=1;whiteSpace=wrap;fontSize=12;fontStyle=0;container=1;pointerEvents=0;collapsible=0;recursiveResize=0;shape=mxgraph.aws4.group;grIcon=mxgraph.aws4.group_security_group;grStroke=0;strokeColor=#248814;fillColor=#E9F3E6;verticalAlign=top;align=left;spacingLeft=30;fontColor=#248814;dashed=0;" parent="A44jhofo7Y1cHH0_AKLR-4" vertex="1">
          <mxGeometry x="80" y="70" width="480" height="200" as="geometry" />
        </mxCell>
        <mxCell id="A44jhofo7Y1cHH0_AKLR-22" value="Private subnet" style="points=[[0,0],[0.25,0],[0.5,0],[0.75,0],[1,0],[1,0.25],[1,0.5],[1,0.75],[1,1],[0.75,1],[0.5,1],[0.25,1],[0,1],[0,0.75],[0,0.5],[0,0.25]];outlineConnect=0;gradientColor=none;html=1;whiteSpace=wrap;fontSize=12;fontStyle=0;container=1;pointerEvents=0;collapsible=0;recursiveResize=0;shape=mxgraph.aws4.group;grIcon=mxgraph.aws4.group_security_group;grStroke=0;strokeColor=#147EBA;fillColor=#E6F2F8;verticalAlign=top;align=left;spacingLeft=30;fontColor=#147EBA;dashed=0;" parent="A44jhofo7Y1cHH0_AKLR-4" vertex="1">
          <mxGeometry x="600" y="70" width="440" height="200" as="geometry" />
        </mxCell>
        <mxCell id="A44jhofo7Y1cHH0_AKLR-23" value="Availability Zone" style="fillColor=none;strokeColor=#147EBA;dashed=1;verticalAlign=top;fontStyle=0;fontColor=#147EBA;" parent="A44jhofo7Y1cHH0_AKLR-4" vertex="1">
          <mxGeometry x="40" y="360" width="1520" height="240" as="geometry" />
        </mxCell>
        <mxCell id="A44jhofo7Y1cHH0_AKLR-24" value="Private subnet" style="points=[[0,0],[0.25,0],[0.5,0],[0.75,0],[1,0],[1,0.25],[1,0.5],[1,0.75],[1,1],[0.75,1],[0.5,1],[0.25,1],[0,1],[0,0.75],[0,0.5],[0,0.25]];outlineConnect=0;gradientColor=none;html=1;whiteSpace=wrap;fontSize=12;fontStyle=0;container=1;pointerEvents=0;collapsible=0;recursiveResize=0;shape=mxgraph.aws4.group;grIcon=mxgraph.aws4.group_security_group;grStroke=0;strokeColor=#147EBA;fillColor=#E6F2F8;verticalAlign=top;align=left;spacingLeft=30;fontColor=#147EBA;dashed=0;" parent="A44jhofo7Y1cHH0_AKLR-4" vertex="1">
          <mxGeometry x="1080" y="390" width="440" height="200" as="geometry" />
        </mxCell>
        <mxCell id="A44jhofo7Y1cHH0_AKLR-25" value="Public subnet" style="points=[[0,0],[0.25,0],[0.5,0],[0.75,0],[1,0],[1,0.25],[1,0.5],[1,0.75],[1,1],[0.75,1],[0.5,1],[0.25,1],[0,1],[0,0.75],[0,0.5],[0,0.25]];outlineConnect=0;gradientColor=none;html=1;whiteSpace=wrap;fontSize=12;fontStyle=0;container=1;pointerEvents=0;collapsible=0;recursiveResize=0;shape=mxgraph.aws4.group;grIcon=mxgraph.aws4.group_security_group;grStroke=0;strokeColor=#248814;fillColor=#E9F3E6;verticalAlign=top;align=left;spacingLeft=30;fontColor=#248814;dashed=0;" parent="A44jhofo7Y1cHH0_AKLR-4" vertex="1">
          <mxGeometry x="80" y="390" width="480" height="200" as="geometry" />
        </mxCell>
        <mxCell id="A44jhofo7Y1cHH0_AKLR-26" value="Private subnet" style="points=[[0,0],[0.25,0],[0.5,0],[0.75,0],[1,0],[1,0.25],[1,0.5],[1,0.75],[1,1],[0.75,1],[0.5,1],[0.25,1],[0,1],[0,0.75],[0,0.5],[0,0.25]];outlineConnect=0;gradientColor=none;html=1;whiteSpace=wrap;fontSize=12;fontStyle=0;container=1;pointerEvents=0;collapsible=0;recursiveResize=0;shape=mxgraph.aws4.group;grIcon=mxgraph.aws4.group_security_group;grStroke=0;strokeColor=#147EBA;fillColor=#E6F2F8;verticalAlign=top;align=left;spacingLeft=30;fontColor=#147EBA;dashed=0;" parent="A44jhofo7Y1cHH0_AKLR-4" vertex="1">
          <mxGeometry x="600" y="390" width="440" height="200" as="geometry" />
        </mxCell>
        <mxCell id="A44jhofo7Y1cHH0_AKLR-33" value="" style="fillColor=none;strokeColor=#D86613;verticalAlign=top;fontStyle=0;fontColor=#DD3522;strokeWidth=2;" parent="A44jhofo7Y1cHH0_AKLR-4" vertex="1">
          <mxGeometry x="590" y="60" width="460" height="550" as="geometry" />
        </mxCell>
        <mxCell id="A44jhofo7Y1cHH0_AKLR-38" value="" style="sketch=0;points=[[0,0,0],[0.25,0,0],[0.5,0,0],[0.75,0,0],[1,0,0],[0,1,0],[0.25,1,0],[0.5,1,0],[0.75,1,0],[1,1,0],[0,0.25,0],[0,0.5,0],[0,0.75,0],[1,0.25,0],[1,0.5,0],[1,0.75,0]];outlineConnect=0;fontColor=#232F3E;gradientColor=#F78E04;gradientDirection=north;fillColor=#D05C17;strokeColor=#ffffff;dashed=0;verticalLabelPosition=bottom;verticalAlign=top;align=center;html=1;fontSize=12;fontStyle=0;aspect=fixed;shape=mxgraph.aws4.resourceIcon;resIcon=mxgraph.aws4.ec2;" parent="A44jhofo7Y1cHH0_AKLR-4" vertex="1">
          <mxGeometry x="309.75" y="130.5" width="78" height="78" as="geometry" />
        </mxCell>
        <mxCell id="A44jhofo7Y1cHH0_AKLR-39" value="" style="sketch=0;points=[[0,0,0],[0.25,0,0],[0.5,0,0],[0.75,0,0],[1,0,0],[0,1,0],[0.25,1,0],[0.5,1,0],[0.75,1,0],[1,1,0],[0,0.25,0],[0,0.5,0],[0,0.75,0],[1,0.25,0],[1,0.5,0],[1,0.75,0]];outlineConnect=0;fontColor=#232F3E;gradientColor=#F78E04;gradientDirection=north;fillColor=#D05C17;strokeColor=#ffffff;dashed=0;verticalLabelPosition=bottom;verticalAlign=top;align=center;html=1;fontSize=12;fontStyle=0;aspect=fixed;shape=mxgraph.aws4.resourceIcon;resIcon=mxgraph.aws4.ec2;" parent="A44jhofo7Y1cHH0_AKLR-4" vertex="1">
          <mxGeometry x="800.75" y="131" width="78" height="78" as="geometry" />
        </mxCell>
        <mxCell id="A44jhofo7Y1cHH0_AKLR-41" value="" style="sketch=0;points=[[0,0,0],[0.25,0,0],[0.5,0,0],[0.75,0,0],[1,0,0],[0,1,0],[0.25,1,0],[0.5,1,0],[0.75,1,0],[1,1,0],[0,0.25,0],[0,0.5,0],[0,0.75,0],[1,0.25,0],[1,0.5,0],[1,0.75,0]];outlineConnect=0;fontColor=#232F3E;gradientColor=#F78E04;gradientDirection=north;fillColor=#D05C17;strokeColor=#ffffff;dashed=0;verticalLabelPosition=bottom;verticalAlign=top;align=center;html=1;fontSize=12;fontStyle=0;aspect=fixed;shape=mxgraph.aws4.resourceIcon;resIcon=mxgraph.aws4.ec2;" parent="A44jhofo7Y1cHH0_AKLR-4" vertex="1">
          <mxGeometry x="320.5" y="450.5" width="78" height="78" as="geometry" />
        </mxCell>
        <mxCell id="A44jhofo7Y1cHH0_AKLR-42" value="" style="sketch=0;points=[[0,0,0],[0.25,0,0],[0.5,0,0],[0.75,0,0],[1,0,0],[0,1,0],[0.25,1,0],[0.5,1,0],[0.75,1,0],[1,1,0],[0,0.25,0],[0,0.5,0],[0,0.75,0],[1,0.25,0],[1,0.5,0],[1,0.75,0]];outlineConnect=0;fontColor=#232F3E;gradientColor=#F78E04;gradientDirection=north;fillColor=#D05C17;strokeColor=#ffffff;dashed=0;verticalLabelPosition=bottom;verticalAlign=top;align=center;html=1;fontSize=12;fontStyle=0;aspect=fixed;shape=mxgraph.aws4.resourceIcon;resIcon=mxgraph.aws4.ec2;" parent="A44jhofo7Y1cHH0_AKLR-4" vertex="1">
          <mxGeometry x="802.75" y="460" width="78" height="78" as="geometry" />
        </mxCell>
        <mxCell id="A44jhofo7Y1cHH0_AKLR-45" value="" style="sketch=0;points=[[0,0,0],[0.25,0,0],[0.5,0,0],[0.75,0,0],[1,0,0],[0,1,0],[0.25,1,0],[0.5,1,0],[0.75,1,0],[1,1,0],[0,0.25,0],[0,0.5,0],[0,0.75,0],[1,0.25,0],[1,0.5,0],[1,0.75,0]];outlineConnect=0;fontColor=#232F3E;gradientColor=#4D72F3;gradientDirection=north;fillColor=#3334B9;strokeColor=#ffffff;dashed=0;verticalLabelPosition=bottom;verticalAlign=top;align=center;html=1;fontSize=12;fontStyle=0;aspect=fixed;shape=mxgraph.aws4.resourceIcon;resIcon=mxgraph.aws4.rds;" parent="A44jhofo7Y1cHH0_AKLR-4" vertex="1">
          <mxGeometry x="1261" y="451" width="78" height="78" as="geometry" />
        </mxCell>
        <mxCell id="A44jhofo7Y1cHH0_AKLR-48" value="" style="fillColor=none;strokeColor=#007DBC;verticalAlign=top;fontStyle=0;fontColor=#DD3522;strokeWidth=2;" parent="A44jhofo7Y1cHH0_AKLR-4" vertex="1">
          <mxGeometry x="70" y="60" width="500" height="550" as="geometry" />
        </mxCell>
        <mxCell id="A44jhofo7Y1cHH0_AKLR-53" value="" style="rounded=1;arcSize=10;dashed=1;strokeColor=#ff0000;fillColor=none;gradientColor=none;dashPattern=8 4;strokeWidth=2;" parent="A44jhofo7Y1cHH0_AKLR-4" vertex="1">
          <mxGeometry x="250" y="70" width="199.5" height="199.5" as="geometry" />
        </mxCell>
        <mxCell id="A44jhofo7Y1cHH0_AKLR-51" value="Elastic Load Balancing" style="sketch=0;outlineConnect=0;fontColor=#232F3E;gradientColor=none;strokeColor=#ffffff;fillColor=#232F3E;dashed=0;verticalLabelPosition=middle;verticalAlign=bottom;align=center;html=1;whiteSpace=wrap;fontSize=10;fontStyle=1;spacing=3;shape=mxgraph.aws4.productIcon;prIcon=mxgraph.aws4.elastic_load_balancing;" parent="A44jhofo7Y1cHH0_AKLR-4" vertex="1">
          <mxGeometry x="99" y="260" width="80" height="115" as="geometry" />
        </mxCell>
        <mxCell id="A44jhofo7Y1cHH0_AKLR-54" value="" style="outlineConnect=0;dashed=0;verticalLabelPosition=bottom;verticalAlign=top;align=center;html=1;shape=mxgraph.aws3.vpc_nat_gateway;fillColor=#F58534;gradientColor=none;strokeColor=#007DBC;strokeWidth=2;" parent="A44jhofo7Y1cHH0_AKLR-4" vertex="1">
          <mxGeometry x="110" y="100" width="69" height="72" as="geometry" />
        </mxCell>
        <mxCell id="A44jhofo7Y1cHH0_AKLR-56" value="" style="outlineConnect=0;dashed=0;verticalLabelPosition=bottom;verticalAlign=top;align=center;html=1;shape=mxgraph.aws3.vpc_nat_gateway;fillColor=#F58534;gradientColor=none;strokeColor=#007DBC;strokeWidth=2;" parent="A44jhofo7Y1cHH0_AKLR-4" vertex="1">
          <mxGeometry x="110" y="420" width="69" height="72" as="geometry" />
        </mxCell>
        <mxCell id="A44jhofo7Y1cHH0_AKLR-58" value="" style="rounded=1;arcSize=10;dashed=1;strokeColor=#ff0000;fillColor=none;gradientColor=none;dashPattern=8 4;strokeWidth=2;" parent="A44jhofo7Y1cHH0_AKLR-4" vertex="1">
          <mxGeometry x="259.75" y="389.5" width="199.5" height="199.5" as="geometry" />
        </mxCell>
        <mxCell id="A44jhofo7Y1cHH0_AKLR-59" value="" style="rounded=1;arcSize=10;dashed=1;strokeColor=#ff0000;fillColor=none;gradientColor=none;dashPattern=8 4;strokeWidth=2;" parent="A44jhofo7Y1cHH0_AKLR-4" vertex="1">
          <mxGeometry x="80" y="255" width="116" height="130" as="geometry" />
        </mxCell>
        <mxCell id="A44jhofo7Y1cHH0_AKLR-52" value="AWS Auto Scaling" style="sketch=0;outlineConnect=0;fontColor=#232F3E;gradientColor=none;strokeColor=#ffffff;fillColor=#232F3E;dashed=0;verticalLabelPosition=middle;verticalAlign=bottom;align=center;html=1;whiteSpace=wrap;fontSize=10;fontStyle=1;spacing=3;shape=mxgraph.aws4.productIcon;prIcon=mxgraph.aws4.autoscaling;" parent="A44jhofo7Y1cHH0_AKLR-4" vertex="1">
          <mxGeometry x="625" y="255" width="80" height="110" as="geometry" />
        </mxCell>
        <mxCell id="A44jhofo7Y1cHH0_AKLR-136" value="" style="rounded=1;arcSize=10;dashed=1;strokeColor=#ff0000;fillColor=none;gradientColor=none;dashPattern=8 4;strokeWidth=2;" parent="A44jhofo7Y1cHH0_AKLR-4" vertex="1">
          <mxGeometry x="600" y="250" width="130" height="140" as="geometry" />
        </mxCell>
        <mxCell id="A44jhofo7Y1cHH0_AKLR-182" value="" style="rounded=1;arcSize=10;dashed=1;strokeColor=#ff0000;fillColor=none;gradientColor=none;dashPattern=8 4;strokeWidth=2;" parent="A44jhofo7Y1cHH0_AKLR-4" vertex="1">
          <mxGeometry x="1115" y="95" width="370" height="475" as="geometry" />
        </mxCell>
        <mxCell id="A44jhofo7Y1cHH0_AKLR-214" value="" style="rounded=1;arcSize=10;dashed=1;strokeColor=#ff0000;fillColor=none;gradientColor=none;dashPattern=8 4;strokeWidth=2;" parent="A44jhofo7Y1cHH0_AKLR-4" vertex="1">
          <mxGeometry x="710" y="70.5" width="260" height="519.5" as="geometry" />
        </mxCell>
        <mxCell id="A44jhofo7Y1cHH0_AKLR-55" value="" style="outlineConnect=0;dashed=0;verticalLabelPosition=bottom;verticalAlign=top;align=center;html=1;shape=mxgraph.aws3.internet_gateway;fillColor=#F58534;gradientColor=none;strokeColor=#007DBC;strokeWidth=2;" parent="A44jhofo7Y1cHH0_AKLR-4" vertex="1">
          <mxGeometry x="-40" y="260" width="69" height="72" as="geometry" />
        </mxCell>
        <mxCell id="A44jhofo7Y1cHH0_AKLR-263" value="" style="edgeStyle=orthogonalEdgeStyle;html=1;endArrow=openThin;elbow=vertical;startArrow=none;endFill=0;strokeColor=#545B64;rounded=0;exitX=0.5;exitY=0;exitDx=0;exitDy=0;exitPerimeter=0;entryX=0;entryY=0.5;entryDx=0;entryDy=0;entryPerimeter=0;strokeWidth=5;" parent="A44jhofo7Y1cHH0_AKLR-4" source="A44jhofo7Y1cHH0_AKLR-55" target="A44jhofo7Y1cHH0_AKLR-54" edge="1">
          <mxGeometry width="100" relative="1" as="geometry">
            <mxPoint x="-200" y="280" as="sourcePoint" />
            <mxPoint x="-100" y="280" as="targetPoint" />
          </mxGeometry>
        </mxCell>
        <mxCell id="A44jhofo7Y1cHH0_AKLR-264" value="" style="edgeStyle=orthogonalEdgeStyle;html=1;endArrow=openThin;elbow=vertical;startArrow=none;endFill=0;strokeColor=#545B64;rounded=0;exitX=0.5;exitY=1;exitDx=0;exitDy=0;exitPerimeter=0;entryX=0;entryY=0.5;entryDx=0;entryDy=0;entryPerimeter=0;strokeWidth=5;" parent="A44jhofo7Y1cHH0_AKLR-4" source="A44jhofo7Y1cHH0_AKLR-55" target="A44jhofo7Y1cHH0_AKLR-56" edge="1">
          <mxGeometry width="100" relative="1" as="geometry">
            <mxPoint x="-200" y="440" as="sourcePoint" />
            <mxPoint x="-100" y="440" as="targetPoint" />
          </mxGeometry>
        </mxCell>
        <mxCell id="A44jhofo7Y1cHH0_AKLR-259" value="" style="sketch=0;points=[[0,0,0],[0.25,0,0],[0.5,0,0],[0.75,0,0],[1,0,0],[0,1,0],[0.25,1,0],[0.5,1,0],[0.75,1,0],[1,1,0],[0,0.25,0],[0,0.5,0],[0,0.75,0],[1,0.25,0],[1,0.5,0],[1,0.75,0]];points=[[0,0,0],[0.25,0,0],[0.5,0,0],[0.75,0,0],[1,0,0],[0,1,0],[0.25,1,0],[0.5,1,0],[0.75,1,0],[1,1,0],[0,0.25,0],[0,0.5,0],[0,0.75,0],[1,0.25,0],[1,0.5,0],[1,0.75,0]];outlineConnect=0;fontColor=#232F3E;gradientColor=#F34482;gradientDirection=north;fillColor=#BC1356;strokeColor=#ffffff;dashed=0;verticalLabelPosition=bottom;verticalAlign=top;align=center;html=1;fontSize=12;fontStyle=0;aspect=fixed;shape=mxgraph.aws4.resourceIcon;resIcon=mxgraph.aws4.cloudformation;" parent="A44jhofo7Y1cHH0_AKLR-2" vertex="1">
          <mxGeometry x="1790" y="324" width="78" height="78" as="geometry" />
        </mxCell>
        <mxCell id="A44jhofo7Y1cHH0_AKLR-67" value="" style="sketch=0;points=[[0,0,0],[0.25,0,0],[0.5,0,0],[0.75,0,0],[1,0,0],[0,1,0],[0.25,1,0],[0.5,1,0],[0.75,1,0],[1,1,0],[0,0.25,0],[0,0.5,0],[0,0.75,0],[1,0.25,0],[1,0.5,0],[1,0.75,0]];outlineConnect=0;fontColor=#232F3E;gradientColor=#FF4F8B;gradientDirection=north;fillColor=#BC1356;strokeColor=#ffffff;dashed=0;verticalLabelPosition=bottom;verticalAlign=top;align=center;html=1;fontSize=12;fontStyle=0;aspect=fixed;shape=mxgraph.aws4.resourceIcon;resIcon=mxgraph.aws4.sns;" parent="A44jhofo7Y1cHH0_AKLR-1" vertex="1">
          <mxGeometry x="1440" y="810" width="78" height="78" as="geometry" />
        </mxCell>
        <mxCell id="A44jhofo7Y1cHH0_AKLR-69" value="" style="sketch=0;points=[[0,0,0],[0.25,0,0],[0.5,0,0],[0.75,0,0],[1,0,0],[0,1,0],[0.25,1,0],[0.5,1,0],[0.75,1,0],[1,1,0],[0,0.25,0],[0,0.5,0],[0,0.75,0],[1,0.25,0],[1,0.5,0],[1,0.75,0]];outlineConnect=0;fontColor=#232F3E;gradientColor=#945DF2;gradientDirection=north;fillColor=#5A30B5;strokeColor=#ffffff;dashed=0;verticalLabelPosition=bottom;verticalAlign=top;align=center;html=1;fontSize=12;fontStyle=0;aspect=fixed;shape=mxgraph.aws4.resourceIcon;resIcon=mxgraph.aws4.route_53;" parent="A44jhofo7Y1cHH0_AKLR-1" vertex="1">
          <mxGeometry x="72" y="819.75" width="78" height="78" as="geometry" />
        </mxCell>
        <mxCell id="A44jhofo7Y1cHH0_AKLR-78" value="" style="sketch=0;points=[[0,0,0],[0.25,0,0],[0.5,0,0],[0.75,0,0],[1,0,0],[0,1,0],[0.25,1,0],[0.5,1,0],[0.75,1,0],[1,1,0],[0,0.25,0],[0,0.5,0],[0,0.75,0],[1,0.25,0],[1,0.5,0],[1,0.75,0]];outlineConnect=0;fontColor=#232F3E;gradientColor=#945DF2;gradientDirection=north;fillColor=#5A30B5;strokeColor=#ffffff;dashed=0;verticalLabelPosition=bottom;verticalAlign=top;align=center;html=1;fontSize=12;fontStyle=0;aspect=fixed;shape=mxgraph.aws4.resourceIcon;resIcon=mxgraph.aws4.cloudfront;" parent="A44jhofo7Y1cHH0_AKLR-1" vertex="1">
          <mxGeometry x="192" y="822.25" width="78" height="78" as="geometry" />
        </mxCell>
        <mxCell id="A44jhofo7Y1cHH0_AKLR-65" value="" style="sketch=0;points=[[0,0,0],[0.25,0,0],[0.5,0,0],[0.75,0,0],[1,0,0],[0,1,0],[0.25,1,0],[0.5,1,0],[0.75,1,0],[1,1,0],[0,0.25,0],[0,0.5,0],[0,0.75,0],[1,0.25,0],[1,0.5,0],[1,0.75,0]];outlineConnect=0;fontColor=#232F3E;gradientColor=#FF4F8B;gradientDirection=north;fillColor=#BC1356;strokeColor=#ffffff;dashed=0;verticalLabelPosition=bottom;verticalAlign=top;align=center;html=1;fontSize=12;fontStyle=0;aspect=fixed;shape=mxgraph.aws4.resourceIcon;resIcon=mxgraph.aws4.eventbridge;" parent="A44jhofo7Y1cHH0_AKLR-1" vertex="1">
          <mxGeometry x="1280" y="810" width="78" height="78" as="geometry" />
        </mxCell>
        <mxCell id="A44jhofo7Y1cHH0_AKLR-216" value="" style="sketch=0;outlineConnect=0;fontColor=#232F3E;gradientColor=none;fillColor=#232F3D;strokeColor=none;dashed=0;verticalLabelPosition=bottom;verticalAlign=top;align=center;html=1;fontSize=12;fontStyle=0;aspect=fixed;pointerEvents=1;shape=mxgraph.aws4.user;" parent="A44jhofo7Y1cHH0_AKLR-1" vertex="1">
          <mxGeometry x="2050" y="810" width="78" height="78" as="geometry" />
        </mxCell>
        <mxCell id="A44jhofo7Y1cHH0_AKLR-221" value="Region" style="points=[[0,0],[0.25,0],[0.5,0],[0.75,0],[1,0],[1,0.25],[1,0.5],[1,0.75],[1,1],[0.75,1],[0.5,1],[0.25,1],[0,1],[0,0.75],[0,0.5],[0,0.25]];outlineConnect=0;gradientColor=none;html=1;whiteSpace=wrap;fontSize=12;fontStyle=0;container=1;pointerEvents=0;collapsible=0;recursiveResize=0;shape=mxgraph.aws4.group;grIcon=mxgraph.aws4.group_region;strokeColor=#147EBA;fillColor=none;verticalAlign=top;align=left;spacingLeft=30;fontColor=#147EBA;dashed=1;" parent="A44jhofo7Y1cHH0_AKLR-1" vertex="1">
          <mxGeometry x="400" y="960" width="1880" height="720" as="geometry" />
        </mxCell>
        <mxCell id="A44jhofo7Y1cHH0_AKLR-222" value="VPC" style="points=[[0,0],[0.25,0],[0.5,0],[0.75,0],[1,0],[1,0.25],[1,0.5],[1,0.75],[1,1],[0.75,1],[0.5,1],[0.25,1],[0,1],[0,0.75],[0,0.5],[0,0.25]];outlineConnect=0;gradientColor=none;html=1;whiteSpace=wrap;fontSize=12;fontStyle=0;container=1;pointerEvents=0;collapsible=0;recursiveResize=0;shape=mxgraph.aws4.group;grIcon=mxgraph.aws4.group_vpc;strokeColor=#248814;fillColor=none;verticalAlign=top;align=left;spacingLeft=30;fontColor=#AAB7B8;dashed=0;" parent="A44jhofo7Y1cHH0_AKLR-221" vertex="1">
          <mxGeometry x="160" y="40" width="1600" height="660" as="geometry" />
        </mxCell>
        <mxCell id="A44jhofo7Y1cHH0_AKLR-223" value="Availability Zone" style="fillColor=none;strokeColor=#147EBA;dashed=1;verticalAlign=top;fontStyle=0;fontColor=#147EBA;" parent="A44jhofo7Y1cHH0_AKLR-222" vertex="1">
          <mxGeometry x="40" y="40" width="1520" height="240" as="geometry" />
        </mxCell>
        <mxCell id="A44jhofo7Y1cHH0_AKLR-224" value="Private subnet" style="points=[[0,0],[0.25,0],[0.5,0],[0.75,0],[1,0],[1,0.25],[1,0.5],[1,0.75],[1,1],[0.75,1],[0.5,1],[0.25,1],[0,1],[0,0.75],[0,0.5],[0,0.25]];outlineConnect=0;gradientColor=none;html=1;whiteSpace=wrap;fontSize=12;fontStyle=0;container=1;pointerEvents=0;collapsible=0;recursiveResize=0;shape=mxgraph.aws4.group;grIcon=mxgraph.aws4.group_security_group;grStroke=0;strokeColor=#147EBA;fillColor=#E6F2F8;verticalAlign=top;align=left;spacingLeft=30;fontColor=#147EBA;dashed=0;" parent="A44jhofo7Y1cHH0_AKLR-222" vertex="1">
          <mxGeometry x="1080" y="70" width="440" height="200" as="geometry" />
        </mxCell>
        <mxCell id="A44jhofo7Y1cHH0_AKLR-225" value="" style="sketch=0;points=[[0,0,0],[0.25,0,0],[0.5,0,0],[0.75,0,0],[1,0,0],[0,1,0],[0.25,1,0],[0.5,1,0],[0.75,1,0],[1,1,0],[0,0.25,0],[0,0.5,0],[0,0.75,0],[1,0.25,0],[1,0.5,0],[1,0.75,0]];outlineConnect=0;fontColor=#232F3E;gradientColor=#4D72F3;gradientDirection=north;fillColor=#3334B9;strokeColor=#ffffff;dashed=0;verticalLabelPosition=bottom;verticalAlign=top;align=center;html=1;fontSize=12;fontStyle=0;aspect=fixed;shape=mxgraph.aws4.resourceIcon;resIcon=mxgraph.aws4.rds;" parent="A44jhofo7Y1cHH0_AKLR-224" vertex="1">
          <mxGeometry x="181" y="61" width="78" height="78" as="geometry" />
        </mxCell>
        <mxCell id="A44jhofo7Y1cHH0_AKLR-226" value="Public subnet" style="points=[[0,0],[0.25,0],[0.5,0],[0.75,0],[1,0],[1,0.25],[1,0.5],[1,0.75],[1,1],[0.75,1],[0.5,1],[0.25,1],[0,1],[0,0.75],[0,0.5],[0,0.25]];outlineConnect=0;gradientColor=none;html=1;whiteSpace=wrap;fontSize=12;fontStyle=0;container=1;pointerEvents=0;collapsible=0;recursiveResize=0;shape=mxgraph.aws4.group;grIcon=mxgraph.aws4.group_security_group;grStroke=0;strokeColor=#248814;fillColor=#E9F3E6;verticalAlign=top;align=left;spacingLeft=30;fontColor=#248814;dashed=0;" parent="A44jhofo7Y1cHH0_AKLR-222" vertex="1">
          <mxGeometry x="80" y="70" width="480" height="200" as="geometry" />
        </mxCell>
        <mxCell id="A44jhofo7Y1cHH0_AKLR-227" value="Private subnet" style="points=[[0,0],[0.25,0],[0.5,0],[0.75,0],[1,0],[1,0.25],[1,0.5],[1,0.75],[1,1],[0.75,1],[0.5,1],[0.25,1],[0,1],[0,0.75],[0,0.5],[0,0.25]];outlineConnect=0;gradientColor=none;html=1;whiteSpace=wrap;fontSize=12;fontStyle=0;container=1;pointerEvents=0;collapsible=0;recursiveResize=0;shape=mxgraph.aws4.group;grIcon=mxgraph.aws4.group_security_group;grStroke=0;strokeColor=#147EBA;fillColor=#E6F2F8;verticalAlign=top;align=left;spacingLeft=30;fontColor=#147EBA;dashed=0;" parent="A44jhofo7Y1cHH0_AKLR-222" vertex="1">
          <mxGeometry x="600" y="70" width="440" height="200" as="geometry" />
        </mxCell>
        <mxCell id="A44jhofo7Y1cHH0_AKLR-228" value="Availability Zone" style="fillColor=none;strokeColor=#147EBA;dashed=1;verticalAlign=top;fontStyle=0;fontColor=#147EBA;" parent="A44jhofo7Y1cHH0_AKLR-222" vertex="1">
          <mxGeometry x="40" y="360" width="1520" height="240" as="geometry" />
        </mxCell>
        <mxCell id="A44jhofo7Y1cHH0_AKLR-229" value="Private subnet" style="points=[[0,0],[0.25,0],[0.5,0],[0.75,0],[1,0],[1,0.25],[1,0.5],[1,0.75],[1,1],[0.75,1],[0.5,1],[0.25,1],[0,1],[0,0.75],[0,0.5],[0,0.25]];outlineConnect=0;gradientColor=none;html=1;whiteSpace=wrap;fontSize=12;fontStyle=0;container=1;pointerEvents=0;collapsible=0;recursiveResize=0;shape=mxgraph.aws4.group;grIcon=mxgraph.aws4.group_security_group;grStroke=0;strokeColor=#147EBA;fillColor=#E6F2F8;verticalAlign=top;align=left;spacingLeft=30;fontColor=#147EBA;dashed=0;" parent="A44jhofo7Y1cHH0_AKLR-222" vertex="1">
          <mxGeometry x="1080" y="390" width="440" height="200" as="geometry" />
        </mxCell>
        <mxCell id="A44jhofo7Y1cHH0_AKLR-230" value="Public subnet" style="points=[[0,0],[0.25,0],[0.5,0],[0.75,0],[1,0],[1,0.25],[1,0.5],[1,0.75],[1,1],[0.75,1],[0.5,1],[0.25,1],[0,1],[0,0.75],[0,0.5],[0,0.25]];outlineConnect=0;gradientColor=none;html=1;whiteSpace=wrap;fontSize=12;fontStyle=0;container=1;pointerEvents=0;collapsible=0;recursiveResize=0;shape=mxgraph.aws4.group;grIcon=mxgraph.aws4.group_security_group;grStroke=0;strokeColor=#248814;fillColor=#E9F3E6;verticalAlign=top;align=left;spacingLeft=30;fontColor=#248814;dashed=0;" parent="A44jhofo7Y1cHH0_AKLR-222" vertex="1">
          <mxGeometry x="80" y="390" width="480" height="200" as="geometry" />
        </mxCell>
        <mxCell id="A44jhofo7Y1cHH0_AKLR-231" value="Private subnet" style="points=[[0,0],[0.25,0],[0.5,0],[0.75,0],[1,0],[1,0.25],[1,0.5],[1,0.75],[1,1],[0.75,1],[0.5,1],[0.25,1],[0,1],[0,0.75],[0,0.5],[0,0.25]];outlineConnect=0;gradientColor=none;html=1;whiteSpace=wrap;fontSize=12;fontStyle=0;container=1;pointerEvents=0;collapsible=0;recursiveResize=0;shape=mxgraph.aws4.group;grIcon=mxgraph.aws4.group_security_group;grStroke=0;strokeColor=#147EBA;fillColor=#E6F2F8;verticalAlign=top;align=left;spacingLeft=30;fontColor=#147EBA;dashed=0;" parent="A44jhofo7Y1cHH0_AKLR-222" vertex="1">
          <mxGeometry x="600" y="390" width="440" height="200" as="geometry" />
        </mxCell>
        <mxCell id="A44jhofo7Y1cHH0_AKLR-232" value="" style="fillColor=none;strokeColor=#D86613;verticalAlign=top;fontStyle=0;fontColor=#DD3522;strokeWidth=2;" parent="A44jhofo7Y1cHH0_AKLR-222" vertex="1">
          <mxGeometry x="590" y="60" width="460" height="550" as="geometry" />
        </mxCell>
        <mxCell id="A44jhofo7Y1cHH0_AKLR-233" value="" style="sketch=0;points=[[0,0,0],[0.25,0,0],[0.5,0,0],[0.75,0,0],[1,0,0],[0,1,0],[0.25,1,0],[0.5,1,0],[0.75,1,0],[1,1,0],[0,0.25,0],[0,0.5,0],[0,0.75,0],[1,0.25,0],[1,0.5,0],[1,0.75,0]];outlineConnect=0;fontColor=#232F3E;gradientColor=#F78E04;gradientDirection=north;fillColor=#D05C17;strokeColor=#ffffff;dashed=0;verticalLabelPosition=bottom;verticalAlign=top;align=center;html=1;fontSize=12;fontStyle=0;aspect=fixed;shape=mxgraph.aws4.resourceIcon;resIcon=mxgraph.aws4.ec2;" parent="A44jhofo7Y1cHH0_AKLR-222" vertex="1">
          <mxGeometry x="319.75" y="130.5" width="78" height="78" as="geometry" />
        </mxCell>
        <mxCell id="A44jhofo7Y1cHH0_AKLR-234" value="" style="sketch=0;points=[[0,0,0],[0.25,0,0],[0.5,0,0],[0.75,0,0],[1,0,0],[0,1,0],[0.25,1,0],[0.5,1,0],[0.75,1,0],[1,1,0],[0,0.25,0],[0,0.5,0],[0,0.75,0],[1,0.25,0],[1,0.5,0],[1,0.75,0]];outlineConnect=0;fontColor=#232F3E;gradientColor=#F78E04;gradientDirection=north;fillColor=#D05C17;strokeColor=#ffffff;dashed=0;verticalLabelPosition=bottom;verticalAlign=top;align=center;html=1;fontSize=12;fontStyle=0;aspect=fixed;shape=mxgraph.aws4.resourceIcon;resIcon=mxgraph.aws4.ec2;" parent="A44jhofo7Y1cHH0_AKLR-222" vertex="1">
          <mxGeometry x="800.75" y="131" width="78" height="78" as="geometry" />
        </mxCell>
        <mxCell id="A44jhofo7Y1cHH0_AKLR-235" value="" style="sketch=0;points=[[0,0,0],[0.25,0,0],[0.5,0,0],[0.75,0,0],[1,0,0],[0,1,0],[0.25,1,0],[0.5,1,0],[0.75,1,0],[1,1,0],[0,0.25,0],[0,0.5,0],[0,0.75,0],[1,0.25,0],[1,0.5,0],[1,0.75,0]];outlineConnect=0;fontColor=#232F3E;gradientColor=#F78E04;gradientDirection=north;fillColor=#D05C17;strokeColor=#ffffff;dashed=0;verticalLabelPosition=bottom;verticalAlign=top;align=center;html=1;fontSize=12;fontStyle=0;aspect=fixed;shape=mxgraph.aws4.resourceIcon;resIcon=mxgraph.aws4.ec2;" parent="A44jhofo7Y1cHH0_AKLR-222" vertex="1">
          <mxGeometry x="330.5" y="450.5" width="78" height="78" as="geometry" />
        </mxCell>
        <mxCell id="A44jhofo7Y1cHH0_AKLR-236" value="" style="sketch=0;points=[[0,0,0],[0.25,0,0],[0.5,0,0],[0.75,0,0],[1,0,0],[0,1,0],[0.25,1,0],[0.5,1,0],[0.75,1,0],[1,1,0],[0,0.25,0],[0,0.5,0],[0,0.75,0],[1,0.25,0],[1,0.5,0],[1,0.75,0]];outlineConnect=0;fontColor=#232F3E;gradientColor=#F78E04;gradientDirection=north;fillColor=#D05C17;strokeColor=#ffffff;dashed=0;verticalLabelPosition=bottom;verticalAlign=top;align=center;html=1;fontSize=12;fontStyle=0;aspect=fixed;shape=mxgraph.aws4.resourceIcon;resIcon=mxgraph.aws4.ec2;" parent="A44jhofo7Y1cHH0_AKLR-222" vertex="1">
          <mxGeometry x="802.75" y="460" width="78" height="78" as="geometry" />
        </mxCell>
        <mxCell id="A44jhofo7Y1cHH0_AKLR-237" value="" style="sketch=0;points=[[0,0,0],[0.25,0,0],[0.5,0,0],[0.75,0,0],[1,0,0],[0,1,0],[0.25,1,0],[0.5,1,0],[0.75,1,0],[1,1,0],[0,0.25,0],[0,0.5,0],[0,0.75,0],[1,0.25,0],[1,0.5,0],[1,0.75,0]];outlineConnect=0;fontColor=#232F3E;gradientColor=#4D72F3;gradientDirection=north;fillColor=#3334B9;strokeColor=#ffffff;dashed=0;verticalLabelPosition=bottom;verticalAlign=top;align=center;html=1;fontSize=12;fontStyle=0;aspect=fixed;shape=mxgraph.aws4.resourceIcon;resIcon=mxgraph.aws4.rds;" parent="A44jhofo7Y1cHH0_AKLR-222" vertex="1">
          <mxGeometry x="1261" y="451" width="78" height="78" as="geometry" />
        </mxCell>
        <mxCell id="A44jhofo7Y1cHH0_AKLR-238" value="" style="fillColor=none;strokeColor=#007DBC;verticalAlign=top;fontStyle=0;fontColor=#DD3522;strokeWidth=2;" parent="A44jhofo7Y1cHH0_AKLR-222" vertex="1">
          <mxGeometry x="70" y="60" width="500" height="550" as="geometry" />
        </mxCell>
        <mxCell id="A44jhofo7Y1cHH0_AKLR-239" value="" style="rounded=1;arcSize=10;dashed=1;strokeColor=#ff0000;fillColor=none;gradientColor=none;dashPattern=8 4;strokeWidth=2;" parent="A44jhofo7Y1cHH0_AKLR-222" vertex="1">
          <mxGeometry x="260" y="70" width="199.5" height="199.5" as="geometry" />
        </mxCell>
        <mxCell id="A44jhofo7Y1cHH0_AKLR-240" value="Elastic Load Balancing" style="sketch=0;outlineConnect=0;fontColor=#232F3E;gradientColor=none;strokeColor=#ffffff;fillColor=#232F3E;dashed=0;verticalLabelPosition=middle;verticalAlign=bottom;align=center;html=1;whiteSpace=wrap;fontSize=10;fontStyle=1;spacing=3;shape=mxgraph.aws4.productIcon;prIcon=mxgraph.aws4.elastic_load_balancing;" parent="A44jhofo7Y1cHH0_AKLR-222" vertex="1">
          <mxGeometry x="99" y="260" width="80" height="115" as="geometry" />
        </mxCell>
        <mxCell id="A44jhofo7Y1cHH0_AKLR-241" value="" style="outlineConnect=0;dashed=0;verticalLabelPosition=bottom;verticalAlign=top;align=center;html=1;shape=mxgraph.aws3.vpc_nat_gateway;fillColor=#F58534;gradientColor=none;strokeColor=#007DBC;strokeWidth=2;" parent="A44jhofo7Y1cHH0_AKLR-222" vertex="1">
          <mxGeometry x="110" y="100" width="69" height="72" as="geometry" />
        </mxCell>
        <mxCell id="A44jhofo7Y1cHH0_AKLR-242" value="" style="outlineConnect=0;dashed=0;verticalLabelPosition=bottom;verticalAlign=top;align=center;html=1;shape=mxgraph.aws3.vpc_nat_gateway;fillColor=#F58534;gradientColor=none;strokeColor=#007DBC;strokeWidth=2;" parent="A44jhofo7Y1cHH0_AKLR-222" vertex="1">
          <mxGeometry x="110" y="420" width="69" height="72" as="geometry" />
        </mxCell>
        <mxCell id="A44jhofo7Y1cHH0_AKLR-243" value="" style="rounded=1;arcSize=10;dashed=1;strokeColor=#ff0000;fillColor=none;gradientColor=none;dashPattern=8 4;strokeWidth=2;" parent="A44jhofo7Y1cHH0_AKLR-222" vertex="1">
          <mxGeometry x="269.75" y="389.5" width="199.5" height="199.5" as="geometry" />
        </mxCell>
        <mxCell id="A44jhofo7Y1cHH0_AKLR-244" value="" style="rounded=1;arcSize=10;dashed=1;strokeColor=#ff0000;fillColor=none;gradientColor=none;dashPattern=8 4;strokeWidth=2;" parent="A44jhofo7Y1cHH0_AKLR-222" vertex="1">
          <mxGeometry x="80" y="255" width="116" height="130" as="geometry" />
        </mxCell>
        <mxCell id="A44jhofo7Y1cHH0_AKLR-245" value="AWS Auto Scaling" style="sketch=0;outlineConnect=0;fontColor=#232F3E;gradientColor=none;strokeColor=#ffffff;fillColor=#232F3E;dashed=0;verticalLabelPosition=middle;verticalAlign=bottom;align=center;html=1;whiteSpace=wrap;fontSize=10;fontStyle=1;spacing=3;shape=mxgraph.aws4.productIcon;prIcon=mxgraph.aws4.autoscaling;" parent="A44jhofo7Y1cHH0_AKLR-222" vertex="1">
          <mxGeometry x="625" y="255" width="80" height="110" as="geometry" />
        </mxCell>
        <mxCell id="A44jhofo7Y1cHH0_AKLR-246" value="" style="rounded=1;arcSize=10;dashed=1;strokeColor=#ff0000;fillColor=none;gradientColor=none;dashPattern=8 4;strokeWidth=2;" parent="A44jhofo7Y1cHH0_AKLR-222" vertex="1">
          <mxGeometry x="600" y="250" width="130" height="140" as="geometry" />
        </mxCell>
        <mxCell id="A44jhofo7Y1cHH0_AKLR-247" value="" style="rounded=1;arcSize=10;dashed=1;strokeColor=#ff0000;fillColor=none;gradientColor=none;dashPattern=8 4;strokeWidth=2;" parent="A44jhofo7Y1cHH0_AKLR-222" vertex="1">
          <mxGeometry x="1115" y="95" width="370" height="475" as="geometry" />
        </mxCell>
        <mxCell id="A44jhofo7Y1cHH0_AKLR-248" value="" style="rounded=1;arcSize=10;dashed=1;strokeColor=#ff0000;fillColor=none;gradientColor=none;dashPattern=8 4;strokeWidth=2;" parent="A44jhofo7Y1cHH0_AKLR-222" vertex="1">
          <mxGeometry x="710" y="70.5" width="260" height="519.5" as="geometry" />
        </mxCell>
        <mxCell id="A44jhofo7Y1cHH0_AKLR-249" value="" style="outlineConnect=0;dashed=0;verticalLabelPosition=bottom;verticalAlign=top;align=center;html=1;shape=mxgraph.aws3.internet_gateway;fillColor=#F58534;gradientColor=none;strokeColor=#007DBC;strokeWidth=2;" parent="A44jhofo7Y1cHH0_AKLR-221" vertex="1">
          <mxGeometry x="118" y="290" width="69" height="72" as="geometry" />
        </mxCell>
        <mxCell id="A44jhofo7Y1cHH0_AKLR-79" value="" style="sketch=0;points=[[0,0,0],[0.25,0,0],[0.5,0,0],[0.75,0,0],[1,0,0],[0,1,0],[0.25,1,0],[0.5,1,0],[0.75,1,0],[1,1,0],[0,0.25,0],[0,0.5,0],[0,0.75,0],[1,0.25,0],[1,0.5,0],[1,0.75,0]];points=[[0,0,0],[0.25,0,0],[0.5,0,0],[0.75,0,0],[1,0,0],[0,1,0],[0.25,1,0],[0.5,1,0],[0.75,1,0],[1,1,0],[0,0.25,0],[0,0.5,0],[0,0.75,0],[1,0.25,0],[1,0.5,0],[1,0.75,0]];outlineConnect=0;fontColor=#232F3E;gradientColor=#F34482;gradientDirection=north;fillColor=#BC1356;strokeColor=#ffffff;dashed=0;verticalLabelPosition=bottom;verticalAlign=top;align=center;html=1;fontSize=12;fontStyle=0;aspect=fixed;shape=mxgraph.aws4.resourceIcon;resIcon=mxgraph.aws4.cloudformation;" parent="A44jhofo7Y1cHH0_AKLR-221" vertex="1">
          <mxGeometry x="1790" y="321" width="78" height="78" as="geometry" />
        </mxCell>
        <mxCell id="A44jhofo7Y1cHH0_AKLR-260" value="" style="edgeStyle=orthogonalEdgeStyle;html=1;endArrow=openThin;elbow=vertical;startArrow=none;endFill=0;strokeColor=#545B64;rounded=0;exitX=0.5;exitY=0;exitDx=0;exitDy=0;exitPerimeter=0;entryX=0;entryY=0.5;entryDx=0;entryDy=0;entryPerimeter=0;strokeWidth=5;" parent="A44jhofo7Y1cHH0_AKLR-221" source="A44jhofo7Y1cHH0_AKLR-249" target="A44jhofo7Y1cHH0_AKLR-241" edge="1">
          <mxGeometry width="100" relative="1" as="geometry">
            <mxPoint x="87" y="290" as="sourcePoint" />
            <mxPoint x="187" y="290" as="targetPoint" />
          </mxGeometry>
        </mxCell>
        <mxCell id="A44jhofo7Y1cHH0_AKLR-261" value="" style="edgeStyle=orthogonalEdgeStyle;html=1;endArrow=openThin;elbow=vertical;startArrow=none;endFill=0;strokeColor=#545B64;rounded=0;exitX=0.5;exitY=1;exitDx=0;exitDy=0;exitPerimeter=0;entryX=0;entryY=0.5;entryDx=0;entryDy=0;entryPerimeter=0;strokeWidth=5;" parent="A44jhofo7Y1cHH0_AKLR-221" source="A44jhofo7Y1cHH0_AKLR-249" target="A44jhofo7Y1cHH0_AKLR-242" edge="1">
          <mxGeometry width="100" relative="1" as="geometry">
            <mxPoint x="130" y="490.20000000000005" as="sourcePoint" />
            <mxPoint x="230" y="490.20000000000005" as="targetPoint" />
          </mxGeometry>
        </mxCell>
        <mxCell id="A44jhofo7Y1cHH0_AKLR-262" value="" style="edgeStyle=orthogonalEdgeStyle;html=1;endArrow=openThin;elbow=vertical;startArrow=none;endFill=0;strokeColor=#545B64;rounded=0;exitX=0.5;exitY=1;exitDx=0;exitDy=0;exitPerimeter=0;entryX=0;entryY=0.5;entryDx=0;entryDy=0;entryPerimeter=0;strokeWidth=6;" parent="A44jhofo7Y1cHH0_AKLR-1" source="A44jhofo7Y1cHH0_AKLR-78" target="A44jhofo7Y1cHH0_AKLR-249" edge="1">
          <mxGeometry width="100" relative="1" as="geometry">
            <mxPoint x="360" y="1080" as="sourcePoint" />
            <mxPoint x="460" y="1080" as="targetPoint" />
          </mxGeometry>
        </mxCell>
        <mxCell id="A44jhofo7Y1cHH0_AKLR-265" value="" style="edgeStyle=orthogonalEdgeStyle;html=1;endArrow=openThin;elbow=vertical;startArrow=none;endFill=0;strokeColor=#545B64;rounded=0;exitX=0.5;exitY=0;exitDx=0;exitDy=0;exitPerimeter=0;entryX=0;entryY=0.5;entryDx=0;entryDy=0;entryPerimeter=0;strokeWidth=5;" parent="A44jhofo7Y1cHH0_AKLR-1" source="A44jhofo7Y1cHH0_AKLR-78" target="A44jhofo7Y1cHH0_AKLR-55" edge="1">
          <mxGeometry width="100" relative="1" as="geometry">
            <mxPoint x="360" y="680" as="sourcePoint" />
            <mxPoint x="460" y="680" as="targetPoint" />
          </mxGeometry>
        </mxCell>
        <mxCell id="A44jhofo7Y1cHH0_AKLR-271" value="" style="edgeStyle=orthogonalEdgeStyle;html=1;endArrow=openThin;elbow=vertical;startArrow=none;endFill=0;strokeColor=#545B64;rounded=0;strokeWidth=4;" parent="A44jhofo7Y1cHH0_AKLR-1" edge="1">
          <mxGeometry width="100" relative="1" as="geometry">
            <mxPoint x="1360" y="849" as="sourcePoint" />
            <mxPoint x="1440" y="848.6" as="targetPoint" />
            <Array as="points">
              <mxPoint x="1440" y="849" />
            </Array>
          </mxGeometry>
        </mxCell>
        <mxCell id="A44jhofo7Y1cHH0_AKLR-272" value="" style="edgeStyle=orthogonalEdgeStyle;html=1;endArrow=open;elbow=vertical;startArrow=none;endFill=0;strokeColor=#545B64;rounded=0;strokeWidth=4;" parent="A44jhofo7Y1cHH0_AKLR-1" target="A44jhofo7Y1cHH0_AKLR-216" edge="1">
          <mxGeometry width="100" relative="1" as="geometry">
            <mxPoint x="1518" y="848.6" as="sourcePoint" />
            <mxPoint x="1618" y="848.6" as="targetPoint" />
          </mxGeometry>
        </mxCell>
        <mxCell id="A44jhofo7Y1cHH0_AKLR-275" value="" style="edgeStyle=orthogonalEdgeStyle;html=1;endArrow=open;elbow=vertical;startArrow=none;endFill=0;strokeColor=#545B64;rounded=0;entryX=0;entryY=0.25;entryDx=0;entryDy=0;entryPerimeter=0;strokeWidth=4;" parent="A44jhofo7Y1cHH0_AKLR-1" source="A44jhofo7Y1cHH0_AKLR-136" target="A44jhofo7Y1cHH0_AKLR-65" edge="1">
          <mxGeometry width="100" relative="1" as="geometry">
            <mxPoint x="1230" y="650" as="sourcePoint" />
            <mxPoint x="1330" y="650" as="targetPoint" />
          </mxGeometry>
        </mxCell>
        <mxCell id="A44jhofo7Y1cHH0_AKLR-276" value="" style="edgeStyle=orthogonalEdgeStyle;html=1;endArrow=open;elbow=vertical;startArrow=none;endFill=0;strokeColor=#545B64;rounded=0;entryX=0;entryY=0.75;entryDx=0;entryDy=0;entryPerimeter=0;exitX=0.5;exitY=0;exitDx=0;exitDy=0;strokeWidth=4;" parent="A44jhofo7Y1cHH0_AKLR-1" source="A44jhofo7Y1cHH0_AKLR-246" target="A44jhofo7Y1cHH0_AKLR-65" edge="1">
          <mxGeometry width="100" relative="1" as="geometry">
            <mxPoint x="1230" y="970" as="sourcePoint" />
            <mxPoint x="1330" y="970" as="targetPoint" />
          </mxGeometry>
        </mxCell>
        <mxCell id="A44jhofo7Y1cHH0_AKLR-76" value="" style="sketch=0;outlineConnect=0;fontColor=#232F3E;gradientColor=none;fillColor=#232F3D;strokeColor=none;dashed=0;verticalLabelPosition=bottom;verticalAlign=top;align=center;html=1;fontSize=12;fontStyle=0;aspect=fixed;pointerEvents=1;shape=mxgraph.aws4.users;" parent="1" vertex="1">
          <mxGeometry x="610" y="901" width="78" height="78" as="geometry" />
        </mxCell>
        <mxCell id="A44jhofo7Y1cHH0_AKLR-217" value="AWS Cloud" style="points=[[0,0],[0.25,0],[0.5,0],[0.75,0],[1,0],[1,0.25],[1,0.5],[1,0.75],[1,1],[0.75,1],[0.5,1],[0.25,1],[0,1],[0,0.75],[0,0.5],[0,0.25]];outlineConnect=0;gradientColor=none;html=1;whiteSpace=wrap;fontSize=12;fontStyle=0;container=1;pointerEvents=0;collapsible=0;recursiveResize=0;shape=mxgraph.aws4.group;grIcon=mxgraph.aws4.group_aws_cloud;strokeColor=#232F3E;fillColor=none;verticalAlign=top;align=left;spacingLeft=30;fontColor=#232F3E;dashed=0;" parent="1" vertex="1">
          <mxGeometry x="40" y="680" width="440" height="440" as="geometry" />
        </mxCell>
        <mxCell id="A44jhofo7Y1cHH0_AKLR-219" value="Region" style="points=[[0,0],[0.25,0],[0.5,0],[0.75,0],[1,0],[1,0.25],[1,0.5],[1,0.75],[1,1],[0.75,1],[0.5,1],[0.25,1],[0,1],[0,0.75],[0,0.5],[0,0.25]];outlineConnect=0;gradientColor=none;html=1;whiteSpace=wrap;fontSize=12;fontStyle=0;container=1;pointerEvents=0;collapsible=0;recursiveResize=0;shape=mxgraph.aws4.group;grIcon=mxgraph.aws4.group_region;strokeColor=#147EBA;fillColor=none;verticalAlign=top;align=left;spacingLeft=30;fontColor=#147EBA;dashed=1;" parent="A44jhofo7Y1cHH0_AKLR-217" vertex="1">
          <mxGeometry x="40" y="38" width="360" height="362" as="geometry" />
        </mxCell>
        <mxCell id="A44jhofo7Y1cHH0_AKLR-61" value="" style="sketch=0;points=[[0,0,0],[0.25,0,0],[0.5,0,0],[0.75,0,0],[1,0,0],[0,1,0],[0.25,1,0],[0.5,1,0],[0.75,1,0],[1,1,0],[0,0.25,0],[0,0.5,0],[0,0.75,0],[1,0.25,0],[1,0.5,0],[1,0.75,0]];outlineConnect=0;fontColor=#232F3E;gradientColor=#60A337;gradientDirection=north;fillColor=#277116;strokeColor=#ffffff;dashed=0;verticalLabelPosition=bottom;verticalAlign=top;align=center;html=1;fontSize=12;fontStyle=0;aspect=fixed;shape=mxgraph.aws4.resourceIcon;resIcon=mxgraph.aws4.s3;" parent="A44jhofo7Y1cHH0_AKLR-219" vertex="1">
          <mxGeometry x="141" y="134" width="78" height="78" as="geometry" />
        </mxCell>
        <mxCell id="A44jhofo7Y1cHH0_AKLR-251" value="" style="edgeStyle=orthogonalEdgeStyle;html=1;endArrow=openThin;elbow=vertical;startArrow=none;endFill=0;strokeColor=#545B64;rounded=0;strokeWidth=5;" parent="1" edge="1">
          <mxGeometry width="100" relative="1" as="geometry">
            <mxPoint x="700" y="950" as="sourcePoint" />
            <mxPoint x="830" y="950" as="targetPoint" />
          </mxGeometry>
        </mxCell>
        <mxCell id="A44jhofo7Y1cHH0_AKLR-77" value="" style="sketch=0;points=[[0,0,0],[0.25,0,0],[0.5,0,0],[0.75,0,0],[1,0,0],[0,1,0],[0.25,1,0],[0.5,1,0],[0.75,1,0],[1,1,0],[0,0.25,0],[0,0.5,0],[0,0.75,0],[1,0.25,0],[1,0.5,0],[1,0.75,0]];outlineConnect=0;fontColor=#232F3E;gradientColor=#F78E04;gradientDirection=north;fillColor=#D05C17;strokeColor=#ffffff;dashed=0;verticalLabelPosition=bottom;verticalAlign=top;align=center;html=1;fontSize=12;fontStyle=0;aspect=fixed;shape=mxgraph.aws4.resourceIcon;resIcon=mxgraph.aws4.lambda;" parent="1" vertex="1">
          <mxGeometry x="650" y="620" width="78" height="78" as="geometry" />
        </mxCell>
        <mxCell id="A44jhofo7Y1cHH0_AKLR-177" value="" style="shape=mxgraph.gcp2.doubleRect;strokeColor=#dddddd;shadow=1;strokeWidth=1;fillColor=default;" parent="1" vertex="1">
          <mxGeometry x="640" y="510" width="128" height="68" as="geometry" />
        </mxCell>
        <mxCell id="A44jhofo7Y1cHH0_AKLR-178" value="&lt;font color=&quot;#000000&quot;&gt;User&lt;/font&gt;&lt;br&gt;USER IAM" style="sketch=0;dashed=0;connectable=0;html=1;fillColor=#5184F3;strokeColor=none;shape=mxgraph.gcp2.hexIcon;prIcon=cloud_iam;part=1;labelPosition=right;verticalLabelPosition=middle;align=left;verticalAlign=middle;spacingLeft=5;fontColor=#999999;fontSize=12;" parent="A44jhofo7Y1cHH0_AKLR-177" vertex="1">
          <mxGeometry y="0.5" width="44" height="39" relative="1" as="geometry">
            <mxPoint x="5" y="-19.5" as="offset" />
          </mxGeometry>
        </mxCell>
      </root>
    </mxGraphModel>
  </diagram>
</mxfile>
